HIERARCHY
ROOT joint_Root
{
	OFFSET 0.0 0.0 0.0
	CHANNELS 6 Xposition Yposition Zposition Zrotation Xrotation Yrotation 
	JOINT Hips
	{
		OFFSET -17.1583 93.1646 452.98
		CHANNELS 6 Xposition Yposition Zposition Zrotation Xrotation Yrotation 
		JOINT Spine
		{
			OFFSET 15.7357 0.0 0.0
			CHANNELS 6 Xposition Yposition Zposition Zrotation Xrotation Yrotation 
			JOINT Chest
			{
				OFFSET 8.98455 -0.406207 0.0
				CHANNELS 6 Xposition Yposition Zposition Zrotation Xrotation Yrotation 
				JOINT Neck
				{
					OFFSET 16.3773 0.0 0.0
					CHANNELS 6 Xposition Yposition Zposition Zrotation Xrotation Yrotation 
					JOINT Head
					{
						OFFSET 6.45672 0.0 0.0
						CHANNELS 6 Xposition Yposition Zposition Zrotation Xrotation Yrotation 
						End Site
						{
							OFFSET 0.0 0.0 0.0
						}
					}
				}
				JOINT Shoulder_L
				{
					OFFSET 12.9942 -0.242716 4.98039
					CHANNELS 6 Xposition Yposition Zposition Zrotation Xrotation Yrotation 
					JOINT UpperArm_L
					{
						OFFSET 5.34809 0.0 0.0
						CHANNELS 6 Xposition Yposition Zposition Zrotation Xrotation Yrotation 
						JOINT LowerArm_L
						{
							OFFSET 24.3286 1.87007e-05 0.0
							CHANNELS 6 Xposition Yposition Zposition Zrotation Xrotation Yrotation 
							JOINT Hand_L
							{
								OFFSET 22.2916 0.0 0.0
								CHANNELS 6 Xposition Yposition Zposition Zrotation Xrotation Yrotation 
								End Site
								{
									OFFSET 0.0 0.0 0.0
								}
							}
						}
					}
				}
				JOINT Shoulder_R
				{
					OFFSET 12.9945 -0.242716 -4.98039
					CHANNELS 6 Xposition Yposition Zposition Zrotation Xrotation Yrotation 
					JOINT UpperArm_R
					{
						OFFSET -5.34813 0.0 0.0
						CHANNELS 6 Xposition Yposition Zposition Zrotation Xrotation Yrotation 
						JOINT LowerArm_R
						{
							OFFSET -24.3289 0.000322201 0.0
							CHANNELS 6 Xposition Yposition Zposition Zrotation Xrotation Yrotation 
							JOINT Hand_R
							{
								OFFSET -22.2915 -0.000108084 0.0
								CHANNELS 6 Xposition Yposition Zposition Zrotation Xrotation Yrotation 
								End Site
								{
									OFFSET 0.0 0.0 0.0
								}
							}
						}
					}
				}
			}
		}
		JOINT UpperLeg_L
		{
			OFFSET -2.19248 -6.46944 0.0
			CHANNELS 6 Xposition Yposition Zposition Zrotation Xrotation Yrotation 
			JOINT LowerLeg_L
			{
				OFFSET 39.0811 0.0 -1.23785e-05
				CHANNELS 6 Xposition Yposition Zposition Zrotation Xrotation Yrotation 
				JOINT Foot_L
				{
					OFFSET 40.9854 0.0 -1.26872e-05
					CHANNELS 6 Xposition Yposition Zposition Zrotation Xrotation Yrotation 
					JOINT Toes_L
					{
						OFFSET 11.7543 0.0 0.0
						CHANNELS 6 Xposition Yposition Zposition Zrotation Xrotation Yrotation 
						End Site
						{
							OFFSET 0.0 0.0 0.0
						}
					}
				}
			}
		}
		JOINT UpperLeg_R
		{
			OFFSET -2.19251 6.46944 0.0
			CHANNELS 6 Xposition Yposition Zposition Zrotation Xrotation Yrotation 
			JOINT LowerLeg_R
			{
				OFFSET -39.0811 -0.00228153 -0.0401928
				CHANNELS 6 Xposition Yposition Zposition Zrotation Xrotation Yrotation 
				JOINT Foot_R
				{
					OFFSET -40.9854 0.0 0.0
					CHANNELS 6 Xposition Yposition Zposition Zrotation Xrotation Yrotation 
					JOINT Toes_R
					{
						OFFSET -11.7543 0.0 0.0
						CHANNELS 6 Xposition Yposition Zposition Zrotation Xrotation Yrotation 
						End Site
						{
							OFFSET 0.0 0.0 0.0
						}
					}
				}
			}
		}
	}
}
MOTION
Frames:	4
Frame Time:	0.0333333
0.000000 0.000000 0.000000 0.000000 0.000000 -0.000000 -3.280590 91.676200 0.440865 84.940400 0.806270 8.091250 15.735700 0.000005 -0.000001 77.556500 85.578600 -74.953100 8.984550 -0.406207 -0.000000 0.921881 -2.060050 5.219740 16.377300 -0.000001 -0.000001 13.978100 3.101190 9.117750 6.456720 -0.000001 -0.000000 -10.516400 -0.541709 21.162200 12.994200 -0.242716 4.980390 -92.266000 6.033030 -69.369200 5.348090 -0.000007 -0.000001 -79.737500 -22.094300 -10.220700 24.328600 0.000019 0.000005 27.664400 -30.860000 -134.377000 22.291600 -0.000001 0.000005 39.974900 4.984540 7.646350 12.994500 -0.242716 -4.980390 86.453400 8.404100 -67.019600 -5.348130 -0.000001 -0.000004 -70.637300 -9.272140 -8.586430 -24.328900 0.000322 -0.000009 11.740000 -12.823900 -136.883000 -22.291500 -0.000108 -0.000004 52.578800 5.678080 -18.979400 -2.192480 -6.469440 -0.000000 -175.464000 5.340310 0.505217 39.081100 -0.000007 -0.000012 0.426468 -0.776416 28.780100 40.985400 -0.000006 -0.000013 -0.398297 -1.513390 -76.650500 11.754300 -0.000000 0.000003 -0.000561 0.176591 -9.413830 -2.192510 6.469440 -0.000001 -172.269000 11.098100 -172.425000 -39.081100 -0.002282 -0.040193 0.130291 -0.416414 16.956500 -40.985400 0.000008 0.000006 5.152610 4.426520 -72.498400 -11.754300 -0.000006 -0.000006 -0.011243 0.280372 -5.179990
0.000000 0.000000 0.000000 0.000000 0.000000 -0.000000 -3.229870 91.685400 0.434428 84.979400 0.737662 8.075290 15.735700 0.000005 -0.000001 77.794700 85.554700 -75.228700 8.984550 -0.406207 -0.000000 0.975120 -2.030820 5.145630 16.377300 -0.000001 -0.000001 13.990900 3.024210 9.080550 6.456720 -0.000001 -0.000000 -10.365900 -0.682302 21.101000 12.994200 -0.242716 4.980390 -92.273700 6.060340 -69.389700 5.348090 -0.000007 -0.000001 -79.715200 -22.340100 -10.166200 24.328600 0.000019 0.000005 27.889300 -30.862200 -134.106000 22.291600 -0.000001 0.000005 40.368500 4.975630 7.833440 12.994500 -0.242716 -4.980390 86.434300 8.443610 -67.004900 -5.348130 -0.000001 -0.000004 -70.633500 -9.221470 -8.624720 -24.328900 0.000322 -0.000009 11.617900 -12.640100 -136.784000 -22.291500 -0.000108 -0.000004 52.193600 5.677700 -18.877900 -2.192480 -6.469440 -0.000000 -175.542000 5.318440 0.539771 39.081100 -0.000007 -0.000012 0.424075 -0.774429 28.706100 40.985400 -0.000006 -0.000013 -0.384966 -1.601870 -76.636300 11.754300 -0.000000 0.000003 -0.000525 0.176035 -9.436430 -2.192510 6.469440 -0.000001 -172.329000 11.037200 -172.440000 -39.081100 -0.002282 -0.040193 0.131885 -0.421412 16.965300 -40.985400 0.000008 0.000006 5.166090 4.454760 -72.544700 -11.754300 -0.000006 -0.000006 -0.011601 0.282903 -5.076350
0.000000 0.000000 0.000000 0.000000 0.000000 -0.000000 -3.191850 91.686500 0.441688 84.945500 0.689454 8.064290 15.735700 0.000005 -0.000001 78.078200 85.525400 -75.529700 8.984550 -0.406207 -0.000000 1.040410 -1.997380 5.111560 16.377300 -0.000001 -0.000001 14.089100 2.909190 9.085340 6.456720 -0.000001 -0.000000 -10.356200 -0.869582 20.979100 12.994200 -0.242716 4.980390 -92.288100 6.121220 -69.458600 5.348090 -0.000007 -0.000001 -79.641800 -22.586300 -10.108700 24.328600 0.000019 0.000005 27.528600 -30.464500 -134.209000 22.291600 -0.000001 0.000005 40.201800 4.981780 7.704790 12.994500 -0.242716 -4.980390 86.440000 8.429170 -67.002800 -5.348130 -0.000001 -0.000004 -70.678900 -9.116160 -8.558840 -24.328900 0.000322 -0.000009 11.645400 -12.581300 -136.584000 -22.291500 -0.000108 -0.000004 52.215700 5.677120 -18.734600 -2.192480 -6.469440 -0.000000 -175.537000 5.263370 0.529583 39.081100 -0.000007 -0.000012 0.426712 -0.779054 28.712000 40.985400 -0.000006 -0.000013 -0.355074 -1.624500 -76.589100 11.754300 -0.000000 0.000003 -0.000589 0.177005 -9.397010 -2.192510 6.469440 -0.000001 -172.294000 10.915000 -172.441000 -39.081100 -0.002282 -0.040193 0.130917 -0.418793 16.944200 -40.985400 0.000008 0.000006 5.136660 4.368460 -72.501400 -11.754300 -0.000006 -0.000006 -0.011410 0.281555 -5.131560
0.000000 0.000000 0.000000 0.000000 0.000000 -0.000000 -3.146400 91.703300 0.431474 84.963000 0.714141 8.017150 15.735700 0.000005 -0.000001 78.042400 85.508800 -75.524900 8.984550 -0.406207 -0.000000 1.071350 -2.007230 5.050030 16.377300 -0.000001 -0.000001 14.074400 2.812220 9.016600 6.456720 -0.000001 -0.000000 -10.269100 -1.034240 20.945100 12.994200 -0.242716 4.980390 -92.297900 6.142650 -69.443500 5.348090 -0.000007 -0.000001 -79.667600 -22.626500 -10.047200 24.328600 0.000019 0.000005 27.755000 -30.519800 -133.981000 22.291600 -0.000001 0.000005 39.967600 4.972230 7.904500 12.994500 -0.242716 -4.980390 86.429600 8.451490 -66.996900 -5.348130 -0.000001 -0.000004 -70.617300 -8.878110 -8.488230 -24.328900 0.000322 -0.000009 11.593300 -12.456700 -136.436000 -22.291500 -0.000108 -0.000004 52.289600 5.676700 -18.632900 -2.192480 -6.469440 -0.000000 -175.582000 5.290640 0.522859 39.081100 -0.000007 -0.000012 0.424055 -0.777196 28.619000 40.985400 -0.000006 -0.000013 -0.319502 -1.617310 -76.559500 11.754300 -0.000000 0.000003 -0.000566 0.176661 -9.411000 -2.192510 6.469440 -0.000001 -172.370000 10.948100 -172.501000 -39.081100 -0.002282 -0.040193 0.127643 -0.407364 16.970900 -40.985400 0.000008 0.000006 4.886700 4.470990 -72.528300 -11.754300 -0.000006 -0.000006 -0.011924 0.285159 -4.983960
